<mxfile host="app.diagrams.net" agent="Mozilla/5.0 (Windows NT 10.0; Win64; x64) AppleWebKit/537.36 (KHTML, like Gecko) Chrome/132.0.0.0 Safari/537.36" version="26.0.9">
  <diagram name="Page-1" id="74e2e168-ea6b-b213-b513-2b3c1d86103e">
    <mxGraphModel dx="662" dy="601" grid="1" gridSize="10" guides="1" tooltips="1" connect="1" arrows="1" fold="1" page="1" pageScale="1" pageWidth="1100" pageHeight="850" background="none" math="0" shadow="0">
      <root>
        <mxCell id="0" />
        <mxCell id="1" parent="0" />
        <mxCell id="77e6c97f196da883-1" value="&lt;font style=&quot;font-size: 14px;&quot;&gt;Сотрудник&lt;/font&gt;" style="swimlane;html=1;childLayout=stackLayout;startSize=20;rounded=0;shadow=0;labelBackgroundColor=none;strokeWidth=1;fontFamily=Verdana;fontSize=8;align=center;" parent="1" vertex="1">
          <mxGeometry x="110" y="40" width="2820" height="750" as="geometry" />
        </mxCell>
        <mxCell id="77e6c97f196da883-2" value="Новая сделка" style="swimlane;html=1;startSize=20;" parent="77e6c97f196da883-1" vertex="1">
          <mxGeometry y="20" width="160" height="730" as="geometry" />
        </mxCell>
        <mxCell id="77e6c97f196da883-9" value="&lt;span id=&quot;docs-internal-guid-e89998de-7fff-fcaf-f962-2c1cc0d7f8e0&quot;&gt;&lt;span style=&quot;font-size: 11pt; font-family: &amp;quot;Times New Roman&amp;quot;, serif; background-color: transparent; font-variant-numeric: normal; font-variant-east-asian: normal; font-variant-alternates: normal; font-variant-position: normal; font-variant-emoji: normal; vertical-align: baseline; white-space-collapse: preserve;&quot;&gt;Установить ответственного за работу с Перевозчиком&lt;/span&gt;&lt;/span&gt;" style="rounded=1;whiteSpace=wrap;html=1;shadow=0;labelBackgroundColor=none;strokeWidth=1;fontFamily=Verdana;fontSize=8;align=center;" parent="77e6c97f196da883-2" vertex="1">
          <mxGeometry x="30" y="110" width="100" height="80" as="geometry" />
        </mxCell>
        <mxCell id="NdipO9oE5KblEU7zIo_N-13" style="edgeStyle=orthogonalEdgeStyle;rounded=0;orthogonalLoop=1;jettySize=auto;html=1;entryX=0.5;entryY=0;entryDx=0;entryDy=0;" edge="1" parent="77e6c97f196da883-2" source="NdipO9oE5KblEU7zIo_N-12" target="77e6c97f196da883-9">
          <mxGeometry relative="1" as="geometry" />
        </mxCell>
        <mxCell id="NdipO9oE5KblEU7zIo_N-12" value="" style="points=[[0.145,0.145,0],[0.5,0,0],[0.855,0.145,0],[1,0.5,0],[0.855,0.855,0],[0.5,1,0],[0.145,0.855,0],[0,0.5,0]];shape=mxgraph.bpmn.event;html=1;verticalLabelPosition=bottom;labelBackgroundColor=#ffffff;verticalAlign=top;align=center;perimeter=ellipsePerimeter;outlineConnect=0;aspect=fixed;outline=standard;symbol=general;" vertex="1" parent="77e6c97f196da883-2">
          <mxGeometry x="55" y="30" width="50" height="50" as="geometry" />
        </mxCell>
        <mxCell id="NdipO9oE5KblEU7zIo_N-15" value="" style="points=[[0.25,0.25,0],[0.5,0,0],[0.75,0.25,0],[1,0.5,0],[0.75,0.75,0],[0.5,1,0],[0.25,0.75,0],[0,0.5,0]];shape=mxgraph.bpmn.gateway2;html=1;verticalLabelPosition=bottom;labelBackgroundColor=#ffffff;verticalAlign=top;align=center;perimeter=rhombusPerimeter;outlineConnect=0;outline=none;symbol=none;gwType=parallel;" vertex="1" parent="77e6c97f196da883-2">
          <mxGeometry x="55" y="220" width="50" height="50" as="geometry" />
        </mxCell>
        <mxCell id="NdipO9oE5KblEU7zIo_N-16" style="edgeStyle=orthogonalEdgeStyle;rounded=0;orthogonalLoop=1;jettySize=auto;html=1;entryX=0.5;entryY=0;entryDx=0;entryDy=0;entryPerimeter=0;" edge="1" parent="77e6c97f196da883-2" source="77e6c97f196da883-9" target="NdipO9oE5KblEU7zIo_N-15">
          <mxGeometry relative="1" as="geometry" />
        </mxCell>
        <mxCell id="77e6c97f196da883-3" value="Первый контакт" style="swimlane;html=1;startSize=20;" parent="77e6c97f196da883-1" vertex="1">
          <mxGeometry x="160" y="20" width="280" height="730" as="geometry" />
        </mxCell>
        <mxCell id="77e6c97f196da883-12" value="&lt;span id=&quot;docs-internal-guid-d5b0d1a6-7fff-bb77-70f7-6a18b83a8dd0&quot;&gt;&lt;span style=&quot;font-size: 11pt; font-family: &amp;quot;Times New Roman&amp;quot;, serif; background-color: transparent; font-variant-numeric: normal; font-variant-east-asian: normal; font-variant-alternates: normal; font-variant-position: normal; font-variant-emoji: normal; vertical-align: baseline; white-space-collapse: preserve;&quot;&gt;Заполнить информацию о Компании Перевозчике&lt;/span&gt;&lt;/span&gt;" style="rounded=1;whiteSpace=wrap;html=1;shadow=0;labelBackgroundColor=none;strokeWidth=1;fontFamily=Verdana;fontSize=8;align=center;" parent="77e6c97f196da883-3" vertex="1">
          <mxGeometry x="25" y="160" width="110" height="80" as="geometry" />
        </mxCell>
        <mxCell id="NdipO9oE5KblEU7zIo_N-21" value="" style="edgeStyle=orthogonalEdgeStyle;rounded=0;orthogonalLoop=1;jettySize=auto;html=1;entryX=0.5;entryY=0;entryDx=0;entryDy=0;entryPerimeter=0;exitX=0.75;exitY=1;exitDx=0;exitDy=0;" edge="1" parent="77e6c97f196da883-3" source="NdipO9oE5KblEU7zIo_N-17" target="NdipO9oE5KblEU7zIo_N-19">
          <mxGeometry relative="1" as="geometry" />
        </mxCell>
        <mxCell id="NdipO9oE5KblEU7zIo_N-17" value="&lt;span id=&quot;docs-internal-guid-d5b0d1a6-7fff-bb77-70f7-6a18b83a8dd0&quot;&gt;&lt;span style=&quot;font-size: 11pt; font-family: &amp;quot;Times New Roman&amp;quot;, serif; background-color: transparent; font-variant-numeric: normal; font-variant-east-asian: normal; font-variant-alternates: normal; font-variant-position: normal; font-variant-emoji: normal; vertical-align: baseline; white-space-collapse: preserve;&quot;&gt;Выполнить &lt;/span&gt;&lt;/span&gt;&lt;span id=&quot;docs-internal-guid-dcf88091-7fff-f348-bc5f-2ad3a1a93c64&quot;&gt;&lt;span style=&quot;font-size: 11pt; font-family: &amp;quot;Times New Roman&amp;quot;, serif; background-color: transparent; font-variant-numeric: normal; font-variant-east-asian: normal; font-variant-alternates: normal; font-variant-position: normal; font-variant-emoji: normal; vertical-align: baseline; white-space-collapse: preserve;&quot;&gt;финальную классификацию Перевозчика&lt;/span&gt;&lt;/span&gt;" style="rounded=1;whiteSpace=wrap;html=1;shadow=0;labelBackgroundColor=none;strokeWidth=1;fontFamily=Verdana;fontSize=8;align=center;" vertex="1" parent="77e6c97f196da883-3">
          <mxGeometry x="25" y="250" width="110" height="80" as="geometry" />
        </mxCell>
        <mxCell id="NdipO9oE5KblEU7zIo_N-19" value="" style="points=[[0.25,0.25,0],[0.5,0,0],[0.75,0.25,0],[1,0.5,0],[0.75,0.75,0],[0.5,1,0],[0.25,0.75,0],[0,0.5,0]];shape=mxgraph.bpmn.gateway2;html=1;verticalLabelPosition=bottom;labelBackgroundColor=#ffffff;verticalAlign=top;align=center;perimeter=rhombusPerimeter;outlineConnect=0;outline=none;symbol=none;gwType=exclusive;" vertex="1" parent="77e6c97f196da883-3">
          <mxGeometry x="110" y="380" width="50" height="50" as="geometry" />
        </mxCell>
        <mxCell id="NdipO9oE5KblEU7zIo_N-20" value="&lt;span id=&quot;docs-internal-guid-b72c4123-7fff-1bd9-1e77-3b93412c3f0c&quot;&gt;&lt;span style=&quot;font-size: 11pt; font-family: &amp;quot;Times New Roman&amp;quot;, serif; background-color: transparent; font-variant-numeric: normal; font-variant-east-asian: normal; font-variant-alternates: normal; font-variant-position: normal; font-variant-emoji: normal; vertical-align: baseline; white-space-collapse: preserve;&quot;&gt;продолжить работу?&lt;/span&gt;&lt;/span&gt;" style="text;html=1;strokeColor=none;fillColor=none;align=center;verticalAlign=middle;whiteSpace=wrap;rounded=0;" vertex="1" parent="77e6c97f196da883-3">
          <mxGeometry x="140" y="335" width="80" height="30" as="geometry" />
        </mxCell>
        <mxCell id="NdipO9oE5KblEU7zIo_N-25" style="edgeStyle=orthogonalEdgeStyle;rounded=0;orthogonalLoop=1;jettySize=auto;html=1;entryX=0.5;entryY=0;entryDx=0;entryDy=0;entryPerimeter=0;" edge="1" parent="77e6c97f196da883-3" source="NdipO9oE5KblEU7zIo_N-19" target="NdipO9oE5KblEU7zIo_N-52">
          <mxGeometry relative="1" as="geometry">
            <mxPoint x="80" y="440" as="targetPoint" />
          </mxGeometry>
        </mxCell>
        <mxCell id="NdipO9oE5KblEU7zIo_N-44" value="Нет" style="edgeLabel;html=1;align=center;verticalAlign=middle;resizable=0;points=[];" vertex="1" connectable="0" parent="NdipO9oE5KblEU7zIo_N-25">
          <mxGeometry x="-0.64" relative="1" as="geometry">
            <mxPoint as="offset" />
          </mxGeometry>
        </mxCell>
        <mxCell id="NdipO9oE5KblEU7zIo_N-37" value="" style="points=[[0.145,0.145,0],[0.5,0,0],[0.855,0.145,0],[1,0.5,0],[0.855,0.855,0],[0.5,1,0],[0.145,0.855,0],[0,0.5,0]];shape=mxgraph.bpmn.event;html=1;verticalLabelPosition=bottom;labelBackgroundColor=#ffffff;verticalAlign=top;align=center;perimeter=ellipsePerimeter;outlineConnect=0;aspect=fixed;outline=end;symbol=terminate2;" vertex="1" parent="77e6c97f196da883-3">
          <mxGeometry x="200" y="525" width="50" height="50" as="geometry" />
        </mxCell>
        <mxCell id="NdipO9oE5KblEU7zIo_N-53" value="" style="edgeStyle=orthogonalEdgeStyle;rounded=0;orthogonalLoop=1;jettySize=auto;html=1;" edge="1" parent="77e6c97f196da883-3" source="NdipO9oE5KblEU7zIo_N-52" target="NdipO9oE5KblEU7zIo_N-37">
          <mxGeometry relative="1" as="geometry" />
        </mxCell>
        <mxCell id="NdipO9oE5KblEU7zIo_N-52" value="&lt;span style=&quot;font-family: &amp;quot;Times New Roman&amp;quot;, serif; font-size: 14.6667px; white-space: pre-wrap;&quot;&gt;Карточка сделки&lt;/span&gt;" style="shape=mxgraph.bpmn.data2;labelPosition=center;verticalLabelPosition=bottom;align=center;verticalAlign=top;size=15;html=1;" vertex="1" parent="77e6c97f196da883-3">
          <mxGeometry x="115" y="520" width="40" height="60" as="geometry" />
        </mxCell>
        <mxCell id="NdipO9oE5KblEU7zIo_N-49" value="&lt;span style=&quot;font-family: &amp;quot;Times New Roman&amp;quot;, serif; font-size: 14.6667px; white-space: pre-wrap;&quot;&gt;Карточка Компании&lt;/span&gt;" style="shape=mxgraph.bpmn.data2;labelPosition=center;verticalLabelPosition=bottom;align=center;verticalAlign=top;size=15;html=1;" vertex="1" parent="77e6c97f196da883-3">
          <mxGeometry x="220" y="375" width="40" height="60" as="geometry" />
        </mxCell>
        <mxCell id="NdipO9oE5KblEU7zIo_N-33" style="edgeStyle=orthogonalEdgeStyle;rounded=0;orthogonalLoop=1;jettySize=auto;html=1;entryX=0;entryY=0.5;entryDx=0;entryDy=0;entryPerimeter=0;" edge="1" parent="77e6c97f196da883-3" source="NdipO9oE5KblEU7zIo_N-19" target="NdipO9oE5KblEU7zIo_N-49">
          <mxGeometry relative="1" as="geometry">
            <mxPoint x="135" y="385" as="targetPoint" />
          </mxGeometry>
        </mxCell>
        <mxCell id="NdipO9oE5KblEU7zIo_N-43" value="Да" style="edgeLabel;html=1;align=center;verticalAlign=middle;resizable=0;points=[];" vertex="1" connectable="0" parent="NdipO9oE5KblEU7zIo_N-33">
          <mxGeometry x="-0.68" y="-2" relative="1" as="geometry">
            <mxPoint as="offset" />
          </mxGeometry>
        </mxCell>
        <mxCell id="NdipO9oE5KblEU7zIo_N-69" value="" style="dashed=1;endArrow=blockThin;endFill=1;startArrow=oval;startFill=0;endSize=6;startSize=4;html=1;rounded=0;entryX=0.25;entryY=1;entryDx=0;entryDy=0;" edge="1" parent="77e6c97f196da883-3" target="NdipO9oE5KblEU7zIo_N-17">
          <mxGeometry width="160" relative="1" as="geometry">
            <mxPoint x="50.2777606324953" y="485.00154307542834" as="sourcePoint" />
            <mxPoint x="90" y="239.5" as="targetPoint" />
          </mxGeometry>
        </mxCell>
        <mxCell id="NdipO9oE5KblEU7zIo_N-73" value="" style="dashed=1;endArrow=blockThin;endFill=1;startArrow=oval;startFill=0;endSize=6;startSize=4;html=1;rounded=0;entryX=0.5;entryY=1;entryDx=0;entryDy=0;entryPerimeter=0;" edge="1" parent="77e6c97f196da883-3" target="NdipO9oE5KblEU7zIo_N-81">
          <mxGeometry width="160" relative="1" as="geometry">
            <mxPoint x="50" y="770" as="sourcePoint" />
            <mxPoint x="50" y="535" as="targetPoint" />
          </mxGeometry>
        </mxCell>
        <mxCell id="NdipO9oE5KblEU7zIo_N-74" value="Отказ&lt;div&gt;от дальнейшей&lt;/div&gt;&lt;div&gt;совместной работы&lt;/div&gt;" style="edgeLabel;html=1;align=center;verticalAlign=middle;resizable=0;points=[];" vertex="1" connectable="0" parent="NdipO9oE5KblEU7zIo_N-73">
          <mxGeometry x="-0.2662" y="1" relative="1" as="geometry">
            <mxPoint x="1" y="-64" as="offset" />
          </mxGeometry>
        </mxCell>
        <mxCell id="NdipO9oE5KblEU7zIo_N-63" value="" style="dashed=1;endArrow=blockThin;endFill=1;startArrow=oval;startFill=0;endSize=6;startSize=4;html=1;rounded=0;entryX=0.5;entryY=1;entryDx=0;entryDy=0;entryPerimeter=0;" edge="1" parent="77e6c97f196da883-3" target="NdipO9oE5KblEU7zIo_N-76">
          <mxGeometry width="160" relative="1" as="geometry">
            <mxPoint x="373" y="771" as="sourcePoint" />
            <mxPoint x="413" y="240" as="targetPoint" />
          </mxGeometry>
        </mxCell>
        <mxCell id="NdipO9oE5KblEU7zIo_N-65" value="Предоставление данных&lt;div&gt;и заполненного шаблона&lt;/div&gt;&lt;div&gt;регистрации&lt;/div&gt;" style="edgeLabel;html=1;align=center;verticalAlign=middle;resizable=0;points=[];" vertex="1" connectable="0" parent="NdipO9oE5KblEU7zIo_N-63">
          <mxGeometry x="-0.2662" y="1" relative="1" as="geometry">
            <mxPoint y="-112" as="offset" />
          </mxGeometry>
        </mxCell>
        <mxCell id="NdipO9oE5KblEU7zIo_N-81" value="" style="points=[[0.145,0.145,0],[0.5,0,0],[0.855,0.145,0],[1,0.5,0],[0.855,0.855,0],[0.5,1,0],[0.145,0.855,0],[0,0.5,0]];shape=mxgraph.bpmn.event;html=1;verticalLabelPosition=bottom;labelBackgroundColor=#ffffff;verticalAlign=top;align=center;perimeter=ellipsePerimeter;outlineConnect=0;aspect=fixed;outline=eventNonint;symbol=message;" vertex="1" parent="77e6c97f196da883-3">
          <mxGeometry x="25" y="480" width="50" height="50" as="geometry" />
        </mxCell>
        <mxCell id="77e6c97f196da883-4" value="На регистрации" style="swimlane;html=1;startSize=20;" parent="77e6c97f196da883-1" vertex="1">
          <mxGeometry x="440" y="20" width="350" height="730" as="geometry" />
        </mxCell>
        <mxCell id="NdipO9oE5KblEU7zIo_N-40" style="edgeStyle=orthogonalEdgeStyle;rounded=0;orthogonalLoop=1;jettySize=auto;html=1;entryX=0;entryY=0.5;entryDx=0;entryDy=0;" edge="1" parent="77e6c97f196da883-4" source="NdipO9oE5KblEU7zIo_N-34">
          <mxGeometry relative="1" as="geometry">
            <mxPoint x="90" y="200" as="targetPoint" />
          </mxGeometry>
        </mxCell>
        <mxCell id="NdipO9oE5KblEU7zIo_N-34" value="" style="points=[[0.25,0.25,0],[0.5,0,0],[0.75,0.25,0],[1,0.5,0],[0.75,0.75,0],[0.5,1,0],[0.25,0.75,0],[0,0.5,0]];shape=mxgraph.bpmn.gateway2;html=1;verticalLabelPosition=bottom;labelBackgroundColor=#ffffff;verticalAlign=top;align=center;perimeter=rhombusPerimeter;outlineConnect=0;outline=none;symbol=none;gwType=parallel;" vertex="1" parent="77e6c97f196da883-4">
          <mxGeometry x="15" y="175" width="50" height="50" as="geometry" />
        </mxCell>
        <mxCell id="NdipO9oE5KblEU7zIo_N-47" style="edgeStyle=orthogonalEdgeStyle;rounded=0;orthogonalLoop=1;jettySize=auto;html=1;entryX=0.5;entryY=0;entryDx=0;entryDy=0;entryPerimeter=0;" edge="1" parent="77e6c97f196da883-4" source="NdipO9oE5KblEU7zIo_N-41">
          <mxGeometry relative="1" as="geometry">
            <mxPoint x="235" y="410" as="targetPoint" />
          </mxGeometry>
        </mxCell>
        <mxCell id="NdipO9oE5KblEU7zIo_N-48" value="Нет" style="edgeLabel;html=1;align=center;verticalAlign=middle;resizable=0;points=[];" vertex="1" connectable="0" parent="NdipO9oE5KblEU7zIo_N-47">
          <mxGeometry x="-0.08" y="1" relative="1" as="geometry">
            <mxPoint as="offset" />
          </mxGeometry>
        </mxCell>
        <mxCell id="NdipO9oE5KblEU7zIo_N-41" value="" style="points=[[0.25,0.25,0],[0.5,0,0],[0.75,0.25,0],[1,0.5,0],[0.75,0.75,0],[0.5,1,0],[0.25,0.75,0],[0,0.5,0]];shape=mxgraph.bpmn.gateway2;html=1;verticalLabelPosition=bottom;labelBackgroundColor=#ffffff;verticalAlign=top;align=center;perimeter=rhombusPerimeter;outlineConnect=0;outline=none;symbol=none;gwType=exclusive;" vertex="1" parent="77e6c97f196da883-4">
          <mxGeometry x="210" y="280" width="50" height="50" as="geometry" />
        </mxCell>
        <mxCell id="NdipO9oE5KblEU7zIo_N-42" style="edgeStyle=orthogonalEdgeStyle;rounded=0;orthogonalLoop=1;jettySize=auto;html=1;entryX=0.5;entryY=0;entryDx=0;entryDy=0;entryPerimeter=0;exitX=1;exitY=0.5;exitDx=0;exitDy=0;exitPerimeter=0;" edge="1" parent="77e6c97f196da883-4" source="NdipO9oE5KblEU7zIo_N-67" target="NdipO9oE5KblEU7zIo_N-41">
          <mxGeometry relative="1" as="geometry">
            <mxPoint x="150" y="225" as="sourcePoint" />
          </mxGeometry>
        </mxCell>
        <mxCell id="NdipO9oE5KblEU7zIo_N-45" value="&lt;span id=&quot;docs-internal-guid-b72c4123-7fff-1bd9-1e77-3b93412c3f0c&quot;&gt;&lt;span style=&quot;font-size: 11pt; font-family: &amp;quot;Times New Roman&amp;quot;, serif; background-color: transparent; font-variant-numeric: normal; font-variant-east-asian: normal; font-variant-alternates: normal; font-variant-position: normal; font-variant-emoji: normal; vertical-align: baseline; white-space-collapse: preserve;&quot;&gt;условия выполнены?&lt;/span&gt;&lt;/span&gt;" style="text;html=1;strokeColor=none;fillColor=none;align=center;verticalAlign=middle;whiteSpace=wrap;rounded=0;" vertex="1" parent="77e6c97f196da883-4">
          <mxGeometry x="240" y="310" width="80" height="30" as="geometry" />
        </mxCell>
        <mxCell id="NdipO9oE5KblEU7zIo_N-61" style="rounded=0;orthogonalLoop=1;jettySize=auto;html=1;dashed=1;exitX=0.5;exitY=1;exitDx=0;exitDy=0;exitPerimeter=0;" edge="1" parent="77e6c97f196da883-4">
          <mxGeometry relative="1" as="geometry">
            <mxPoint x="235" y="770" as="targetPoint" />
            <mxPoint x="235" y="460" as="sourcePoint" />
          </mxGeometry>
        </mxCell>
        <mxCell id="NdipO9oE5KblEU7zIo_N-75" value="Предложение о регистрации&lt;div&gt;и предоставлении данных&lt;/div&gt;" style="edgeLabel;html=1;align=center;verticalAlign=middle;resizable=0;points=[];" vertex="1" connectable="0" parent="NdipO9oE5KblEU7zIo_N-61">
          <mxGeometry x="-0.1097" y="1" relative="1" as="geometry">
            <mxPoint x="-1" y="22" as="offset" />
          </mxGeometry>
        </mxCell>
        <mxCell id="NdipO9oE5KblEU7zIo_N-67" value="&lt;span style=&quot;font-family: &amp;quot;Times New Roman&amp;quot;, serif; font-size: 14.6667px; white-space-collapse: preserve;&quot;&gt;Проверить регистрацию и наличие данных&lt;/span&gt;" style="points=[[0.25,0,0],[0.5,0,0],[0.75,0,0],[1,0.25,0],[1,0.5,0],[1,0.75,0],[0.75,1,0],[0.5,1,0],[0.25,1,0],[0,0.75,0],[0,0.5,0],[0,0.25,0]];shape=mxgraph.bpmn.task2;whiteSpace=wrap;rectStyle=rounded;size=10;html=1;container=1;expand=0;collapsible=0;taskMarker=abstract;isLoopStandard=1;isLoopSub=1;" vertex="1" parent="77e6c97f196da883-4">
          <mxGeometry x="90" y="160" width="120" height="80" as="geometry" />
        </mxCell>
        <mxCell id="NdipO9oE5KblEU7zIo_N-77" value="" style="points=[[0.145,0.145,0],[0.5,0,0],[0.855,0.145,0],[1,0.5,0],[0.855,0.855,0],[0.5,1,0],[0.145,0.855,0],[0,0.5,0]];shape=mxgraph.bpmn.event;html=1;verticalLabelPosition=bottom;labelBackgroundColor=#ffffff;verticalAlign=top;align=center;perimeter=ellipsePerimeter;outlineConnect=0;aspect=fixed;outline=end;symbol=message;" vertex="1" parent="77e6c97f196da883-4">
          <mxGeometry x="210" y="410" width="50" height="50" as="geometry" />
        </mxCell>
        <mxCell id="NdipO9oE5KblEU7zIo_N-76" value="" style="points=[[0.145,0.145,0],[0.5,0,0],[0.855,0.145,0],[1,0.5,0],[0.855,0.855,0],[0.5,1,0],[0.145,0.855,0],[0,0.5,0]];shape=mxgraph.bpmn.event;html=1;verticalLabelPosition=bottom;labelBackgroundColor=#ffffff;verticalAlign=top;align=center;perimeter=ellipsePerimeter;outlineConnect=0;aspect=fixed;outline=eventNonint;symbol=message;" vertex="1" parent="77e6c97f196da883-4">
          <mxGeometry x="70" y="440" width="50" height="50" as="geometry" />
        </mxCell>
        <mxCell id="NdipO9oE5KblEU7zIo_N-80" style="edgeStyle=orthogonalEdgeStyle;rounded=0;orthogonalLoop=1;jettySize=auto;html=1;entryX=0.5;entryY=1;entryDx=0;entryDy=0;entryPerimeter=0;dashed=1;" edge="1" parent="77e6c97f196da883-4" source="NdipO9oE5KblEU7zIo_N-76" target="NdipO9oE5KblEU7zIo_N-67">
          <mxGeometry relative="1" as="geometry" />
        </mxCell>
        <mxCell id="77e6c97f196da883-5" value="Проверка КА" style="swimlane;html=1;startSize=20;" parent="77e6c97f196da883-1" vertex="1">
          <mxGeometry x="790" y="20" width="310" height="730" as="geometry" />
        </mxCell>
        <mxCell id="NdipO9oE5KblEU7zIo_N-84" value="" style="edgeStyle=orthogonalEdgeStyle;rounded=0;orthogonalLoop=1;jettySize=auto;html=1;" edge="1" parent="77e6c97f196da883-5" source="NdipO9oE5KblEU7zIo_N-82" target="NdipO9oE5KblEU7zIo_N-83">
          <mxGeometry relative="1" as="geometry" />
        </mxCell>
        <mxCell id="NdipO9oE5KblEU7zIo_N-82" value="&lt;span style=&quot;font-family: &amp;quot;Times New Roman&amp;quot;, serif; font-size: 14.6667px; white-space-collapse: preserve;&quot;&gt;Уведомить СБ о готовности к проверке&lt;/span&gt;" style="points=[[0.25,0,0],[0.5,0,0],[0.75,0,0],[1,0.25,0],[1,0.5,0],[1,0.75,0],[0.75,1,0],[0.5,1,0],[0.25,1,0],[0,0.75,0],[0,0.5,0],[0,0.25,0]];shape=mxgraph.bpmn.task2;whiteSpace=wrap;rectStyle=rounded;size=10;html=1;container=1;expand=0;collapsible=0;taskMarker=abstract;isLoopStandard=1;isLoopSub=1;" vertex="1" parent="77e6c97f196da883-5">
          <mxGeometry x="100" y="170" width="120" height="80" as="geometry" />
        </mxCell>
        <mxCell id="NdipO9oE5KblEU7zIo_N-90" style="edgeStyle=orthogonalEdgeStyle;rounded=0;orthogonalLoop=1;jettySize=auto;html=1;" edge="1" parent="77e6c97f196da883-5" source="NdipO9oE5KblEU7zIo_N-83" target="NdipO9oE5KblEU7zIo_N-85">
          <mxGeometry relative="1" as="geometry" />
        </mxCell>
        <mxCell id="NdipO9oE5KblEU7zIo_N-83" value="" style="points=[[0.25,0.25,0],[0.5,0,0],[0.75,0.25,0],[1,0.5,0],[0.75,0.75,0],[0.5,1,0],[0.25,0.75,0],[0,0.5,0]];shape=mxgraph.bpmn.gateway2;html=1;verticalLabelPosition=bottom;labelBackgroundColor=#ffffff;verticalAlign=top;align=center;perimeter=rhombusPerimeter;outlineConnect=0;outline=none;symbol=none;gwType=exclusive;" vertex="1" parent="77e6c97f196da883-5">
          <mxGeometry x="135" y="290" width="50" height="50" as="geometry" />
        </mxCell>
        <mxCell id="NdipO9oE5KblEU7zIo_N-85" value="Проверка не пройдена" style="points=[[0.25,0,0],[0.5,0,0],[0.75,0,0],[1,0.25,0],[1,0.5,0],[1,0.75,0],[0.75,1,0],[0.5,1,0],[0.25,1,0],[0,0.75,0],[0,0.5,0],[0,0.25,0]];shape=mxgraph.bpmn.task2;whiteSpace=wrap;rectStyle=rounded;size=10;html=1;container=1;expand=0;collapsible=0;taskMarker=abstract;" vertex="1" parent="77e6c97f196da883-5">
          <mxGeometry x="90" y="380" width="95" height="60" as="geometry" />
        </mxCell>
        <mxCell id="NdipO9oE5KblEU7zIo_N-86" value="" style="points=[[0.145,0.145,0],[0.5,0,0],[0.855,0.145,0],[1,0.5,0],[0.855,0.855,0],[0.5,1,0],[0.145,0.855,0],[0,0.5,0]];shape=mxgraph.bpmn.event;html=1;verticalLabelPosition=bottom;labelBackgroundColor=#ffffff;verticalAlign=top;align=center;perimeter=ellipsePerimeter;outlineConnect=0;aspect=fixed;outline=end;symbol=terminate2;" vertex="1" parent="77e6c97f196da883-5">
          <mxGeometry x="185" y="480" width="50" height="50" as="geometry" />
        </mxCell>
        <mxCell id="NdipO9oE5KblEU7zIo_N-91" value="Проверка не пройдена" style="points=[[0.25,0,0],[0.5,0,0],[0.75,0,0],[1,0.25,0],[1,0.5,0],[1,0.75,0],[0.75,1,0],[0.5,1,0],[0.25,1,0],[0,0.75,0],[0,0.5,0],[0,0.25,0]];shape=mxgraph.bpmn.task2;whiteSpace=wrap;rectStyle=rounded;size=10;html=1;container=1;expand=0;collapsible=0;taskMarker=abstract;" vertex="1" parent="77e6c97f196da883-5">
          <mxGeometry x="200" y="380" width="95" height="60" as="geometry" />
        </mxCell>
        <mxCell id="NdipO9oE5KblEU7zIo_N-92" value="Проверка пройдена" style="points=[[0.25,0,0],[0.5,0,0],[0.75,0,0],[1,0.25,0],[1,0.5,0],[1,0.75,0],[0.75,1,0],[0.5,1,0],[0.25,1,0],[0,0.75,0],[0,0.5,0],[0,0.25,0]];shape=mxgraph.bpmn.task2;whiteSpace=wrap;rectStyle=rounded;size=10;html=1;container=1;expand=0;collapsible=0;taskMarker=abstract;" vertex="1" parent="77e6c97f196da883-5">
          <mxGeometry x="200" y="285" width="95" height="60" as="geometry" />
        </mxCell>
        <mxCell id="NdipO9oE5KblEU7zIo_N-93" style="rounded=0;orthogonalLoop=1;jettySize=auto;html=1;entryX=0;entryY=0.5;entryDx=0;entryDy=0;entryPerimeter=0;" edge="1" parent="77e6c97f196da883-5" source="NdipO9oE5KblEU7zIo_N-83" target="NdipO9oE5KblEU7zIo_N-92">
          <mxGeometry relative="1" as="geometry" />
        </mxCell>
        <mxCell id="NdipO9oE5KblEU7zIo_N-94" value="" style="points=[[0.25,0.25,0],[0.5,0,0],[0.75,0.25,0],[1,0.5,0],[0.75,0.75,0],[0.5,1,0],[0.25,0.75,0],[0,0.5,0]];shape=mxgraph.bpmn.gateway2;html=1;verticalLabelPosition=bottom;labelBackgroundColor=#ffffff;verticalAlign=top;align=center;perimeter=rhombusPerimeter;outlineConnect=0;outline=none;symbol=none;gwType=parallel;" vertex="1" parent="77e6c97f196da883-5">
          <mxGeometry x="112.5" y="480" width="50" height="50" as="geometry" />
        </mxCell>
        <mxCell id="NdipO9oE5KblEU7zIo_N-89" style="edgeStyle=orthogonalEdgeStyle;rounded=0;orthogonalLoop=1;jettySize=auto;html=1;entryX=0.5;entryY=0;entryDx=0;entryDy=0;entryPerimeter=0;" edge="1" parent="77e6c97f196da883-5" source="NdipO9oE5KblEU7zIo_N-85" target="NdipO9oE5KblEU7zIo_N-94">
          <mxGeometry relative="1" as="geometry" />
        </mxCell>
        <mxCell id="NdipO9oE5KblEU7zIo_N-95" style="edgeStyle=orthogonalEdgeStyle;rounded=0;orthogonalLoop=1;jettySize=auto;html=1;entryX=0;entryY=0.5;entryDx=0;entryDy=0;entryPerimeter=0;" edge="1" parent="77e6c97f196da883-5" source="NdipO9oE5KblEU7zIo_N-94" target="NdipO9oE5KblEU7zIo_N-86">
          <mxGeometry relative="1" as="geometry" />
        </mxCell>
        <mxCell id="77e6c97f196da883-6" value="Договор" style="swimlane;html=1;startSize=20;" parent="77e6c97f196da883-1" vertex="1">
          <mxGeometry x="1100" y="20" width="190" height="730" as="geometry" />
        </mxCell>
        <mxCell id="77e6c97f196da883-7" value="Согласование через протокол" style="swimlane;html=1;startSize=20;" parent="77e6c97f196da883-1" vertex="1">
          <mxGeometry x="1290" y="20" width="220" height="730" as="geometry" />
        </mxCell>
        <mxCell id="NdipO9oE5KblEU7zIo_N-1" value="Согласование договора" style="swimlane;html=1;startSize=20;" vertex="1" parent="77e6c97f196da883-1">
          <mxGeometry x="1510" y="20" width="220" height="730" as="geometry" />
        </mxCell>
        <mxCell id="NdipO9oE5KblEU7zIo_N-3" value="Подписание договора" style="swimlane;html=1;startSize=20;" vertex="1" parent="77e6c97f196da883-1">
          <mxGeometry x="1730" y="20" width="220" height="730" as="geometry" />
        </mxCell>
        <mxCell id="NdipO9oE5KblEU7zIo_N-5" value="Обучение, предоставление доступа и передача" style="swimlane;html=1;startSize=20;" vertex="1" parent="77e6c97f196da883-1">
          <mxGeometry x="1950" y="20" width="290" height="730" as="geometry" />
        </mxCell>
        <mxCell id="NdipO9oE5KblEU7zIo_N-7" value="&lt;span id=&quot;docs-internal-guid-29bf8bf1-7fff-d4c1-9082-73fde2c16e3f&quot; style=&quot;font-weight:normal;&quot;&gt;&lt;span style=&quot;font-size: 12pt; font-family: &amp;quot;Times New Roman&amp;quot;, serif; background-color: transparent; font-weight: 700; font-variant-numeric: normal; font-variant-east-asian: normal; font-variant-alternates: normal; font-variant-position: normal; font-variant-emoji: normal; vertical-align: baseline; white-space: pre-wrap;&quot;&gt;Успех&lt;/span&gt;&lt;/span&gt;" style="swimlane;html=1;startSize=20;" vertex="1" parent="77e6c97f196da883-1">
          <mxGeometry x="2240" y="20" width="290" height="730" as="geometry" />
        </mxCell>
        <mxCell id="NdipO9oE5KblEU7zIo_N-9" value="&lt;span id=&quot;docs-internal-guid-29bf8bf1-7fff-d4c1-9082-73fde2c16e3f&quot; style=&quot;font-weight:normal;&quot;&gt;&lt;span style=&quot;font-size: 12pt; font-family: &amp;quot;Times New Roman&amp;quot;, serif; background-color: transparent; font-weight: 700; font-variant-numeric: normal; font-variant-east-asian: normal; font-variant-alternates: normal; font-variant-position: normal; font-variant-emoji: normal; vertical-align: baseline; white-space: pre-wrap;&quot;&gt;Провал&lt;/span&gt;&lt;/span&gt;" style="swimlane;html=1;startSize=20;" vertex="1" parent="77e6c97f196da883-1">
          <mxGeometry x="2530" y="20" width="290" height="730" as="geometry" />
        </mxCell>
        <mxCell id="NdipO9oE5KblEU7zIo_N-14" style="edgeStyle=orthogonalEdgeStyle;rounded=0;orthogonalLoop=1;jettySize=auto;html=1;entryX=0;entryY=0.5;entryDx=0;entryDy=0;" edge="1" parent="77e6c97f196da883-1" source="NdipO9oE5KblEU7zIo_N-15" target="77e6c97f196da883-12">
          <mxGeometry relative="1" as="geometry" />
        </mxCell>
        <mxCell id="NdipO9oE5KblEU7zIo_N-18" style="edgeStyle=orthogonalEdgeStyle;rounded=0;orthogonalLoop=1;jettySize=auto;html=1;entryX=0;entryY=0.5;entryDx=0;entryDy=0;" edge="1" parent="77e6c97f196da883-1" source="NdipO9oE5KblEU7zIo_N-15" target="NdipO9oE5KblEU7zIo_N-17">
          <mxGeometry relative="1" as="geometry" />
        </mxCell>
        <mxCell id="NdipO9oE5KblEU7zIo_N-35" style="edgeStyle=orthogonalEdgeStyle;rounded=0;orthogonalLoop=1;jettySize=auto;html=1;" edge="1" parent="77e6c97f196da883-1" source="77e6c97f196da883-12" target="NdipO9oE5KblEU7zIo_N-34">
          <mxGeometry relative="1" as="geometry" />
        </mxCell>
        <mxCell id="NdipO9oE5KblEU7zIo_N-51" style="edgeStyle=orthogonalEdgeStyle;rounded=0;orthogonalLoop=1;jettySize=auto;html=1;entryX=0.5;entryY=1;entryDx=0;entryDy=0;entryPerimeter=0;" edge="1" parent="77e6c97f196da883-1" source="NdipO9oE5KblEU7zIo_N-49" target="NdipO9oE5KblEU7zIo_N-34">
          <mxGeometry relative="1" as="geometry" />
        </mxCell>
        <mxCell id="NdipO9oE5KblEU7zIo_N-60" style="edgeStyle=orthogonalEdgeStyle;rounded=0;orthogonalLoop=1;jettySize=auto;html=1;entryX=0;entryY=0.5;entryDx=0;entryDy=0;entryPerimeter=0;" edge="1" parent="77e6c97f196da883-1" source="NdipO9oE5KblEU7zIo_N-41" target="NdipO9oE5KblEU7zIo_N-82">
          <mxGeometry relative="1" as="geometry">
            <mxPoint x="810" y="205" as="targetPoint" />
            <Array as="points">
              <mxPoint x="760" y="325" />
              <mxPoint x="760" y="230" />
            </Array>
          </mxGeometry>
        </mxCell>
        <mxCell id="NdipO9oE5KblEU7zIo_N-66" value="Да" style="edgeLabel;html=1;align=center;verticalAlign=middle;resizable=0;points=[];" vertex="1" connectable="0" parent="NdipO9oE5KblEU7zIo_N-60">
          <mxGeometry x="-0.3077" relative="1" as="geometry">
            <mxPoint as="offset" />
          </mxGeometry>
        </mxCell>
        <mxCell id="NdipO9oE5KblEU7zIo_N-58" value="Перевозчик" style="swimlane;html=1;startSize=20;fontStyle=0;collapsible=0;horizontal=0;swimlaneLine=1;swimlaneFillColor=#ffffff;strokeWidth=2;whiteSpace=wrap;" vertex="1" parent="1">
          <mxGeometry x="110" y="830" width="2590" height="120" as="geometry" />
        </mxCell>
      </root>
    </mxGraphModel>
  </diagram>
</mxfile>
